<svg xmlns="http://www.w3.org/2000/svg" width="83.642" height="75.369" viewBox="0 0 83.642 75.369">
  <g id="noun-business-5341285" transform="translate(-568 -260.5)">
    <path id="Path_34" data-name="Path 34" d="M82.929,26.206h-6.97V22.53c0-6.091-4.681-11.03-10.455-11.03H34.138c-5.774,0-10.455,4.938-10.455,11.03v3.677h-6.97A8.962,8.962,0,0,0,8,35.4v42.28a8.962,8.962,0,0,0,8.713,9.191H82.929a8.962,8.962,0,0,0,8.713-9.191V35.4A8.962,8.962,0,0,0,82.929,26.206ZM46.138,45.526a1.792,1.792,0,0,1,1.743-1.838h3.485a1.792,1.792,0,0,1,1.743,1.838v11.03a1.792,1.792,0,0,1-1.743,1.838H47.88a1.792,1.792,0,0,1-1.743-1.838Zm-18.97-23a7.169,7.169,0,0,1,6.97-7.353H65.5a7.169,7.169,0,0,1,6.97,7.353v3.677H27.168ZM88.157,77.678a5.393,5.393,0,0,1-5.228,5.515H16.713a5.393,5.393,0,0,1-5.228-5.515V43.89l2.4,1.433A12.181,12.181,0,0,0,25,52.879H42.653v3.677A5.393,5.393,0,0,0,47.88,62.07h3.485a5.393,5.393,0,0,0,5.228-5.515V52.879H74.245a12.181,12.181,0,0,0,11.117-7.555l2.794-1.433Z" transform="translate(560 249)" fill="#fdfffa"/>
  </g>
</svg>
