<svg xmlns="http://www.w3.org/2000/svg" width="88.97" height="81.502" viewBox="0 0 88.97 81.502">
  <g id="noun-car-finance-4829356" transform="translate(-1.017 -2.273)">
    <path id="Path_2506" data-name="Path 2506" d="M25.827,5.263v3.4q-5.393,1.479-5.389,6.8a6.037,6.037,0,0,0,1.479,4.222A7.178,7.178,0,0,0,23.431,20.9a14.739,14.739,0,0,0,1.74.873l1.743.7a11.721,11.721,0,0,1,1.511.721A2.555,2.555,0,0,1,29.9,25.422a1.729,1.729,0,0,1-1.921,1.986q-1.839,0-1.989-2.4H21.925a18.359,18.359,0,0,1,5.166,9l.252,1.1h3.019V31.583a8.027,8.027,0,0,0,3.8-2.562,6.638,6.638,0,0,0,1.493-4.272,6.084,6.084,0,0,0-1.413-4.008,8.319,8.319,0,0,0-3.53-2.449l-1.366-.508a12.377,12.377,0,0,1-1.5-.674,2.722,2.722,0,0,1-1.692-2.286,1.645,1.645,0,0,1,1.826-1.891q1.728,0,1.856,2.12h5.211v-.163q.067-5.121-4.685-6.226v-3.4Z" transform="translate(38.239 5.885)" fill="#fdfffa"/>
    <path id="Path_2507" data-name="Path 2507" d="M38.73,2.274A23.809,23.809,0,0,0,14.961,25.479h4.783c.428,0,.849.027,1.271.059A17.733,17.733,0,1,1,43.279,43.2,7.561,7.561,0,0,1,47.3,48.251,23.783,23.783,0,0,0,38.73,2.274Z" transform="translate(27.455 0)" fill="#fdfffa"/>
    <path id="Path_2508" data-name="Path 2508" d="M67.388,29.039H61.082l-1.66-7.185A12.976,12.976,0,0,0,47.2,12.131H22.723A12.982,12.982,0,0,0,10.5,21.854L8.84,29.039H2.534a1.517,1.517,0,0,0-1.517,1.514v4.038a1.517,1.517,0,0,0,1.517,1.514H5.07a12.222,12.222,0,0,0-1.3,3.106l-.217.819C1.614,47.331.209,53.64,2.715,56.9A4.9,4.9,0,0,0,6.7,58.815h.356v3.494A2.056,2.056,0,0,0,9.11,64.367h8.3a2.058,2.058,0,0,0,2.057-2.057V58.815h31v3.494a2.056,2.056,0,0,0,2.057,2.057h8.3a2.058,2.058,0,0,0,2.057-2.057V58.815h.356A4.9,4.9,0,0,0,67.207,56.9c2.5-3.257,1.1-9.566-.834-16.867l-.22-.819a12.37,12.37,0,0,0-1.3-3.106h2.535A1.517,1.517,0,0,0,68.9,34.591V30.553A1.517,1.517,0,0,0,67.388,29.039ZM14.582,46.2a3.974,3.974,0,1,1,3.975-3.975A3.975,3.975,0,0,1,14.582,46.2Zm.567-15.391c-.178,0-.335.03-.511.036L16.4,23.22a7,7,0,0,1,6.324-5.029H47.2a7,7,0,0,1,6.324,5.029l1.761,7.621c-.175-.006-.333-.036-.514-.036ZM55.34,46.2a3.974,3.974,0,1,1,3.975-3.975A3.974,3.974,0,0,1,55.34,46.2Z" transform="translate(0 19.408)" fill="#fdfffa"/>
  </g>
</svg>
