<svg xmlns="http://www.w3.org/2000/svg" xmlns:xlink="http://www.w3.org/1999/xlink" width="55.076" height="55.097" viewBox="0 0 55.076 55.097">
  <defs>
    <filter id="Path_25" x="0" y="0" width="55.076" height="55.097" filterUnits="userSpaceOnUse">
      <feOffset dy="3" input="SourceAlpha"/>
      <feGaussianBlur stdDeviation="3" result="blur"/>
      <feFlood flood-opacity="0.102"/>
      <feComposite operator="in" in2="blur"/>
      <feComposite in="SourceGraphic"/>
    </filter>
  </defs>
  <g id="noun-messenger-6996371" transform="translate(6.391 3.375)">
    <g transform="matrix(1, 0, 0, 1, -6.39, -3.38)" filter="url(#Path_25)">
      <path id="Path_25-2" data-name="Path 25" d="M21.125,3.125a18,18,0,0,0-15.1,27.8L4.361,37.637a1.184,1.184,0,0,0,.312,1.14,1.205,1.205,0,0,0,.852.348,1.165,1.165,0,0,0,.288-.036l7.332-1.836a18,18,0,1,0,7.98-34.128Zm9.744,16.536-6,4.8a1.191,1.191,0,0,1-1.488,0l-5.256-4.2-5.256,4.2a1.149,1.149,0,0,1-.744.264,1.2,1.2,0,0,1-.936-.456,1.178,1.178,0,0,1,.192-1.68l6-4.8a1.191,1.191,0,0,1,1.488,0l5.256,4.2,5.256-4.2a1.2,1.2,0,1,1,1.488,1.872Z" transform="translate(6.39 3.38)" fill="#fff" stroke="#0c0" stroke-width="1"/>
    </g>
  </g>
</svg>
