<svg xmlns="http://www.w3.org/2000/svg" width="19.361" height="19.359" viewBox="0 0 19.361 19.359">
  <path id="Subtraction_1" data-name="Subtraction 1" d="M-3830.315,16.36a9.744,9.744,0,0,1-4.338-1.026.6.6,0,0,0-.268-.068.464.464,0,0,0-.1.011l-2.937.722a1.258,1.258,0,0,1-.345.048,1.42,1.42,0,0,1-1.116-.579,1.326,1.326,0,0,1-.236-1.166l.722-2.932a.527.527,0,0,0-.051-.367,9.739,9.739,0,0,1,2.723-11.992A9.127,9.127,0,0,1-3830.434-3a10.16,10.16,0,0,1,4.945,1.283,9.15,9.15,0,0,1,3.634,3.659A9.557,9.557,0,0,1-3820.734,8a9.581,9.581,0,0,1-2.736,5.526A9.7,9.7,0,0,1-3830.315,16.36Zm4.5-11.877a1.557,1.557,0,0,0-1.555,1.556,1.557,1.557,0,0,0,1.555,1.555,1.557,1.557,0,0,0,1.556-1.555A1.558,1.558,0,0,0-3825.819,4.482Zm-4.5,0a1.557,1.557,0,0,0-1.555,1.556,1.556,1.556,0,0,0,1.555,1.555,1.557,1.557,0,0,0,1.555-1.555A1.557,1.557,0,0,0-3830.32,4.482Zm-4.5,0a1.557,1.557,0,0,0-1.555,1.556,1.557,1.557,0,0,0,1.555,1.555,1.557,1.557,0,0,0,1.556-1.555A1.557,1.557,0,0,0-3834.82,4.482Z" transform="translate(3840 3)" fill="#0c0"/>
</svg>
