<svg xmlns="http://www.w3.org/2000/svg" width="63.922" height="90.036" viewBox="0 0 63.922 90.036">
  <g id="noun-consumer-5512844" transform="translate(-16.037 -2.982)">
    <path id="Path_35" data-name="Path 35" d="M59.318,83.489H46.579a6.861,6.861,0,1,1-12.646,0h-.16a7.833,7.833,0,0,1-2.552-15.238L23.232,35.158a.3.3,0,0,0-.31-.238H18.133a2.1,2.1,0,0,1,0-4.192h4.789a4.474,4.474,0,0,1,4.372,3.448l2.279,9.441H77.862a2.1,2.1,0,0,1,1.949,2.87l-6.15,19.94a7.851,7.851,0,0,1-7.56,5.587H33.775a3.641,3.641,0,1,0,0,7.282H65.641a6.855,6.855,0,1,1-6.323,4.193ZM52.585,2.982a9.234,9.234,0,1,1-9.234,9.234,9.234,9.234,0,0,1,9.234-9.234Zm-16.4,36.643H68.988a1.5,1.5,0,0,0,1.469-1.809,18.267,18.267,0,0,0-35.744,0,1.5,1.5,0,0,0,1.468,1.809Zm4.076,43.739a2.793,2.793,0,1,0,2.793,2.793,2.793,2.793,0,0,0-2.793-2.793Zm25.383,0a2.793,2.793,0,1,0,2.793,2.793,2.793,2.793,0,0,0-2.793-2.793ZM31.82,52.916h9.648V47.81H30.588l1.232,5.106Zm12.649,0h6.616V47.81H44.469v5.106Zm9.616,0H60.7V47.81H54.085v5.106Zm9.617,0h9.753L75.03,47.81H63.7v5.106Zm8.827,3H63.7v3.67h7.7l1.132-3.67Zm-11.828,0H54.085v3.67H60.7v-3.67Zm-9.617,0H44.468v3.67h6.616v-3.67Zm-9.617,0H32.544l.886,3.67h8.037v-3.67Zm29,6.671H63.7v5.235h2.4A3.641,3.641,0,0,0,69.666,65.2l.805-2.612Zm-9.77,0H54.085v5.235H60.7V62.588Zm-9.617,0H44.468v5.235h6.616V62.588Zm-9.617,0H34.154l1.264,5.235h6.049Z" fill="#fdfffa" fill-rule="evenodd"/>
  </g>
</svg>
