<svg xmlns="http://www.w3.org/2000/svg" width="22.929" height="22.929" viewBox="0 0 22.929 22.929">
  <g id="noun-dollar-7114049" transform="translate(-8.332 -8.332)">
    <path id="Path_21" data-name="Path 21" d="M8.332,19.8A11.465,11.465,0,1,1,19.8,31.261,11.465,11.465,0,0,1,8.332,19.8Zm12.612-6.879a1.147,1.147,0,1,0-2.294,0v1.147a3.439,3.439,0,0,0,0,6.879h2.294a1.146,1.146,0,0,1,0,2.293h-3.9a1.146,1.146,0,1,0,0,2.293h1.6v1.147a1.147,1.147,0,1,0,2.294,0V25.529a3.439,3.439,0,1,0,0-6.879H18.65a1.146,1.146,0,0,1,0-2.293h3.9a1.146,1.146,0,1,0,0-2.293h-1.6Z" fill="#0c0" fill-rule="evenodd"/>
  </g>
</svg>
