<svg xmlns="http://www.w3.org/2000/svg" xmlns:xlink="http://www.w3.org/1999/xlink" width="50.277" height="50.277" viewBox="0 0 50.277 50.277">
  <defs>
    <filter id="Path_2469" x="0" y="0" width="50.277" height="50.277" filterUnits="userSpaceOnUse">
      <feOffset dy="3" input="SourceAlpha"/>
      <feGaussianBlur stdDeviation="3" result="blur"/>
      <feFlood flood-opacity="0.161"/>
      <feComposite operator="in" in2="blur"/>
      <feComposite in="SourceGraphic"/>
    </filter>
  </defs>
  <g transform="matrix(1, 0, 0, 1, 0, 0)" filter="url(#Path_2469)">
    <path id="Path_2469-2" data-name="Path 2469" d="M20.139,4A16.139,16.139,0,1,0,36.277,20.139,16.139,16.139,0,0,0,20.139,4ZM17.025,21.7a1.345,1.345,0,0,1-1.345-1.345V16.66l-.82.819a1.345,1.345,0,0,1-1.9-1.9l3.114-3.114a1.347,1.347,0,0,1,1.9,0l3.113,3.114a1.345,1.345,0,1,1-1.9,1.9l-.818-.818v3.693A1.345,1.345,0,0,1,17.025,21.7Zm10.294,3L24.2,27.813a1.347,1.347,0,0,1-1.9,0L19.188,24.7a1.345,1.345,0,1,1,1.9-1.9l.818.818V19.923a1.345,1.345,0,0,1,2.69,0v3.694l.82-.819a1.345,1.345,0,1,1,1.9,1.9Z" transform="translate(5 2)" fill="#0c0"/>
  </g>
</svg>
