<svg xmlns="http://www.w3.org/2000/svg" width="18" height="18" viewBox="0 0 18 18">
  <g id="Group_8186" data-name="Group 8186" transform="translate(-1649 -11)">
    <g id="Group_8135" data-name="Group 8135" transform="translate(1656.211 16)">
      <g id="XMLID_834_" transform="translate(0 0)">
        <path id="XMLID_835_" d="M76.837,4.424h.91V8.172a.134.134,0,0,0,.134.134h1.544a.134.134,0,0,0,.134-.134V4.442h1.047a.134.134,0,0,0,.133-.119l.159-1.38a.134.134,0,0,0-.133-.149H79.559V1.929c0-.261.14-.393.417-.393h.788A.134.134,0,0,0,80.9,1.4V.135A.134.134,0,0,0,80.765,0H79.629a2.082,2.082,0,0,0-1.361.513,1.428,1.428,0,0,0-.475,1.269V2.794h-.956a.134.134,0,0,0-.134.134V4.29A.134.134,0,0,0,76.837,4.424Z" transform="translate(-76.703)" fill="gray"/>
      </g>
    </g>
    <g id="Ellipse_904" data-name="Ellipse 904" transform="translate(1649 11)" fill="none" stroke="#d0d0d0" stroke-width="0.5">
      <circle cx="9" cy="9" r="9" stroke="none"/>
      <circle cx="9" cy="9" r="8.75" fill="none"/>
    </g>
  </g>
</svg>
