<svg xmlns="http://www.w3.org/2000/svg" width="178.999" height="148.56" viewBox="0 0 178.999 148.56">
  <g id="Group_8238" data-name="Group 8238" transform="translate(-451 -19473)">
    <g id="Group_8236" data-name="Group 8236" transform="translate(491 19473)">
      <g id="Group_8200" data-name="Group 8200" transform="translate(0 0)">
        <path id="Path_2263" data-name="Path 2263" d="M63.135,15.62a83.31,83.31,0,0,0,8.806,12.073c3.968,4.519,8.588,8.33,13.072,12.288C90.239,44.6,94.64,49.812,97.073,56.5a29.291,29.291,0,0,1,1.865,7.953c.374,5.326-1.538,9.819-4.917,13.778-.6.706-1.234,1.389-1.836,2.1-.4.468-1.1.773-.734,1.657.085.208-.33.655-.556.961a17.308,17.308,0,0,1-11.349,6.834c-6.15,1.087-11.982.131-17.056-3.675-5.321-3.99-9.842-8.755-12.589-14.99-.063-.143-.146-.276-.311-.583a9.281,9.281,0,0,0-.582.927A38.463,38.463,0,0,1,38.925,84.27,21.744,21.744,0,0,1,28,89.784c-7.145,1.148-13.622-.154-18.826-5.66a12.216,12.216,0,0,1-1.295-1.666c-.2-.3-.769-.613-.194-1.109a2.689,2.689,0,0,0-.416-.663C5.928,79.052,4.476,77.5,3.259,75.782c-3.745-5.29-3.974-11.07-2.141-17.1a37.38,37.38,0,0,1,10.713-16.8c3.55-3.276,7.221-6.419,10.758-9.711a68.137,68.137,0,0,0,12.6-15.912c.122-.212.267-.411.547-.84,1.27,3.335,2.465,6.476,3.66,9.615A39.124,39.124,0,0,1,44.939,6.826C46.3,4.515,47.851,2.322,49.365,0c5.815,7.5,9.755,15.526,10.2,25l3.574-9.375M88.7,80.625c.06.127.12.252.179.378.408-.17.927-.234,1.2-.53,1.268-1.352,2.523-2.727,3.685-4.173a16.411,16.411,0,0,0,3.787-13.174,32.782,32.782,0,0,0-6.2-14.608,60.184,60.184,0,0,0-9.546-9.691c-5.09-4.4-10.06-8.911-14.1-14.354-1.423-1.92-2.74-3.919-4.113-5.894a.828.828,0,0,0-.23.16,1.818,1.818,0,0,0-.286.5,65.465,65.465,0,0,0-2.305,7.828c-.944,5.509,1.045,9.835,5.886,12.709C69,41.158,71.35,42.512,73.684,43.9a57.241,57.241,0,0,1,13.029,9.86c6.557,7.02,7.812,16.774,3.167,24.917-.378.662-.787,1.3-1.183,1.954M35.594,18.44c-.3.413-.5.658-.666.925A76.055,76.055,0,0,1,20.452,36.086c-3.373,2.992-6.752,5.991-9.937,9.18a33.55,33.55,0,0,0-8.39,14.626C.8,64.443.813,68.9,3.112,73.189a32.456,32.456,0,0,0,5.8,7.379c.28.284.906.217,1.373.314a10.991,10.991,0,0,0-1.1-2.249,19.125,19.125,0,0,1-2.869-11.1A22.047,22.047,0,0,1,13.1,52.772a63.344,63.344,0,0,1,12.406-9.1c2.628-1.567,5.286-3.086,7.881-4.706a10.637,10.637,0,0,0,4.5-6.03,14.11,14.11,0,0,0,.254-6.571,31.923,31.923,0,0,0-2.55-7.923m29.411,36.6c1.258.082,2.5.137,3.735.25a28.612,28.612,0,0,1,11.967,3.356c5.175,2.988,7.515,7.579,6.982,13.515-.241,2.669-1.007,5.29-1.506,7.936a2.449,2.449,0,0,0,.149.828c.252-.144.581-.228.741-.441.46-.612.864-1.27,1.271-1.92a18.388,18.388,0,0,0,2.864-12.932,21.52,21.52,0,0,0-7.234-12.872,64.716,64.716,0,0,0-10.4-7.472c-3.322-2.015-6.613-4.081-9.933-6.1a.955.955,0,0,0-.829.007c-4.789,2.927-6.121,7.668-3.545,12.388,1.219,2.232,2.814,4.058,5.743,3.454m-31.049.025a4.488,4.488,0,0,0,3.69-.979c3.962-3.434,5.422-10.854-1.3-14.867a1.043,1.043,0,0,0-.9.014c-2.477,1.505-4.9,3.1-7.394,4.574a75.378,75.378,0,0,0-12.74,8.806c-3.807,3.471-6.574,7.523-7.5,12.767C6.8,71.132,8.633,76.021,11.9,80.552c.145.2.526.231.8.341a2.407,2.407,0,0,0,.131-.846c-.225-1-.541-1.977-.775-2.975a21.4,21.4,0,0,1-.57-9.421c1-4.755,3.968-7.858,8.21-9.855,4.5-2.118,9.325-2.575,14.266-2.736m27.405.738a10.894,10.894,0,0,1-4.611-9.338c.085-3.943,2.282-6.685,5.571-8.68a15.116,15.116,0,0,1-3.072-6.558.883.883,0,0,0-.28.467c-.909,5.807-2.983,11.3-4.454,16.953a42.829,42.829,0,0,0-1.568,8.894c-.29,6.922,2.588,12.807,6.693,18.134,2.367,3.07,5.576,5.137,8.793,7.187a8.259,8.259,0,0,0,7.921.621c.213-.084.5-.281.539-.468.412-2.235.847-4.468,1.13-6.722a2.462,2.462,0,0,0-1.194-2.381,1.854,1.854,0,0,0-2.439.191,1.764,1.764,0,0,0,.115,2.294c.293.378.681.679.982,1.051a3.327,3.327,0,0,1,.367,3.635,2.653,2.653,0,0,1-2.666,1.513,3.489,3.489,0,0,1-3.454-2.135,43.593,43.593,0,0,1-1.363-4.4c-7.34-.262-9.448-3.312-6.75-10.031-4.292-1.846-3.75-7.748-.26-10.23M39.946,30.974c-.251.415-.4.558-.432.726a12.826,12.826,0,0,1-2.475,5.785.767.767,0,0,0,.124.7,4.93,4.93,0,0,0,.845.622,10.427,10.427,0,0,1-.046,16.785,1.293,1.293,0,0,0-.221.311,1.722,1.722,0,0,0,.239.328,6.42,6.42,0,0,1,2.343,4.077,4.767,4.767,0,0,1-2.537,5.461c-.52.277-.347.551-.214.936a11.527,11.527,0,0,1,.82,2.746c.179,2.413-.49,5.63-3.655,6.264a14.45,14.45,0,0,1-3.4.315c-.843-.035-.944.246-1.092.977a15.315,15.315,0,0,1-1.189,3.918,3.323,3.323,0,0,1-3.694,1.629,2.732,2.732,0,0,1-2.4-2.062,3.2,3.2,0,0,1,1.012-3.646,2.79,2.79,0,0,0,.464-.481,1.864,1.864,0,0,0,.186-2.372,1.9,1.9,0,0,0-2.53.065,3.182,3.182,0,0,0-1.139,3.2c.281,1.873.67,3.73,1.078,5.579a1.206,1.206,0,0,0,.723.765,14.15,14.15,0,0,0,3.268.6,10.1,10.1,0,0,0,5.445-2c4.518-2.83,8.369-6.289,10.889-11.1A30.382,30.382,0,0,0,45.937,60.93a27.387,27.387,0,0,0-.812-10c-1.6-6.587-4.216-12.9-5.178-19.953M52.336,51.8c.211-.845.4-1.7.634-2.534,1.333-4.706,2.78-9.384,3.991-14.122a35.884,35.884,0,0,0,.772-14.9,40.534,40.534,0,0,0-6.91-16.236c-.373-.547-.77-1.078-1.291-1.8-.859,1.259-1.657,2.362-2.385,3.51-3.783,5.955-6.252,12.346-6.334,19.53a44.952,44.952,0,0,0,1.818,12.558c1.245,4.489,2.551,8.962,3.839,13.438a3.287,3.287,0,0,0,.3.586l.364-.051a12.029,12.029,0,0,0,.076-2.963C46.681,46.39,45.96,44,45.3,41.6A58.046,58.046,0,0,1,42.78,27.447,35.043,35.043,0,0,1,49.313,6.6c.042-.063.144-.084.222-.127a40.55,40.55,0,0,1,5.235,10.71,36.286,36.286,0,0,1,.16,19.53c-1,4.122-2.147,8.206-3.23,12.307a3.138,3.138,0,0,0,.637,2.78M81.149,81.747a14.938,14.938,0,0,1,1.7-.534,1.511,1.511,0,0,0,1.347-1.367c.186-.976.5-1.925.7-2.9.7-3.39.438-6.567-1.945-9.328-2.8-3.244-6.453-3.587-10.3-3.087-2.819.367-5.61.97-8.41,1.488a1.87,1.87,0,0,0-1.023.416,5.511,5.511,0,0,0-1.148,5.478c.557,1.988,2.028,2.572,3.815,2.77.316.034.634.055.952.065A3.073,3.073,0,0,0,69.8,73.389c.31-.481.743-.88,1.1-1.334,1.908-2.436,4.347-2.8,7.115-1.86A6.124,6.124,0,0,1,82.3,76.434a29.743,29.743,0,0,1-.885,4.224c-.064.3-.144.59-.267,1.089m-63.389-.2c-.371-1.636-.791-3.2-1.071-4.793a5.941,5.941,0,0,1,3.244-6.2c2.258-1.149,5.211-1.327,7.126.591.834.836,1.542,1.8,2.4,2.61a2.769,2.769,0,0,0,1.682.9,24.269,24.269,0,0,0,4.177-.709,1.932,1.932,0,0,0,.974-.858,5.793,5.793,0,0,0,.86-3.958,3.194,3.194,0,0,0-3.1-3.184c-.471-.069-.934-.179-1.4-.272-3.261-.65-6.491-1.433-9.872-1.288a9.732,9.732,0,0,0-8.981,8.36,18.02,18.02,0,0,0,.872,6.745c.433,1.571,1.357,2.18,3.085,2.05M86.247,71.02l.364-.093c-.132-1.071-.177-2.16-.409-3.209-.982-4.434-3.907-7.164-7.895-8.867-4.373-1.869-9-2.234-13.688-2.394a4.951,4.951,0,0,0-4.8,4.619c-.119,2.319,1.217,3.767,3.5,3.637a24.176,24.176,0,0,0,3.195-.489,41.466,41.466,0,0,1,9.113-1.245A11.039,11.039,0,0,1,85.839,70.1c.123.313.272.613.408.919m-73.665-.034a35.128,35.128,0,0,1,2.137-3.762c2.889-3.888,6.956-4.712,11.424-4.1,2.932.4,5.819,1.13,8.751,1.542,2.961.416,4.432-1.114,4.207-4.127a4.319,4.319,0,0,0-4.313-4.017c-2.158.06-4.319.156-6.464.386a22.8,22.8,0,0,0-9.8,3.132,11.956,11.956,0,0,0-6.03,9.833,7.718,7.718,0,0,0,.092,1.113M49.66,8.73A10.326,10.326,0,0,0,49,9.563c-4.066,6.714-5.911,13.978-4.6,21.777.816,4.867,2.209,9.635,3.354,14.443a3.528,3.528,0,0,0,.425.74c.426-1.238.826-2.247.331-3.409a20.382,20.382,0,0,1-.726-2.489,48.29,48.29,0,0,1-2.105-13.614,38.7,38.7,0,0,1,3.175-14.642c.19-.452.4-.894.647-1.438.263.643.466,1.146.672,1.648a36.557,36.557,0,0,1,2.673,20.284c-.613,3.634-1.616,7.2-2.492,10.79a2.812,2.812,0,0,0,.689,2.715c1.172-4.293,2.313-8.568,3.209-12.9a31.687,31.687,0,0,0-2.2-20.1c-.7-1.526-1.539-2.989-2.4-4.638m-.139,5.954a31.962,31.962,0,0,0-2.536,14.643,42.853,42.853,0,0,0,2.49,12.022c2.962-8.894,3.684-17.766.046-26.665M78.448,82.542l.313.2a4.069,4.069,0,0,0,.853-1A20.772,20.772,0,0,0,80.7,78.482a9.447,9.447,0,0,0,.322-3.293,4.5,4.5,0,0,0-3.414-3.749c-1.933-.568-3.843-.577-5.316,1.19-.492.588-1.012,1.153-1.506,1.742-1.38,1.64-.892,5.263.868,6.48a2.247,2.247,0,0,0,2.882-.264c.643-.764.418-1.816-.364-2.734a6.676,6.676,0,0,1-1.335-2.268,2.61,2.61,0,0,1,2.5-3.39,3.788,3.788,0,0,1,3.873,3.811,48.045,48.045,0,0,1-.575,5.341c-.047.4-.122.8-.184,1.2m-58.128.251.286-.259c-.052-.279-.11-.557-.158-.837-.256-1.517-.6-3.026-.747-4.555-.188-1.907.3-3.6,2.117-4.589a2.979,2.979,0,0,1,3.409.319A2.408,2.408,0,0,1,26.1,75.8a8.668,8.668,0,0,1-1.5,2.376,1.835,1.835,0,0,0-.349,2.2,1.612,1.612,0,0,0,1.866.836,2.7,2.7,0,0,0,2.141-1.565c1.211-2.466,1.012-4.119-.717-6.229-1.24-1.513-2.608-2.5-4.733-2.279-2.772.288-5.6,2.9-4.853,6.013.39,1.619.906,3.212,1.45,4.787.122.349.6.573.913.854M52.194,63.361a1.913,1.913,0,0,0-.575,2.052c2.15,6.622,5.592,12.368,11.128,16.7a3.624,3.624,0,0,0,2.8.488C58.445,78.06,54.431,71.389,52.194,63.361M33.46,82.626a4.458,4.458,0,0,0,3.6-1.28A33.491,33.491,0,0,0,47.337,65.237a5.273,5.273,0,0,0-.114-1.818l-.394-.068c-2.213,8.02-6.149,14.811-13.37,19.275m27.45.008A90.084,90.084,0,0,1,55.1,75.528a90.168,90.168,0,0,1-4.342-8.045,1.451,1.451,0,0,0-.394,1.627,33.717,33.717,0,0,0,9.595,13.226,2.681,2.681,0,0,0,.952.3m-22.936-.239c.068.1.137.195.205.293a4.366,4.366,0,0,0,.833-.433,34.275,34.275,0,0,0,9.469-12.881,1.987,1.987,0,0,0-.341-2.21A34.146,34.146,0,0,1,37.974,82.395M49.622,52.572c.382-1.8,1-3.5-.071-5.261a4.95,4.95,0,0,0,.071,5.261m1.331,1.667a13.144,13.144,0,0,0-.1,6.766,16.449,16.449,0,0,0,.1-6.766m-2.868,6.749c.56-1,.528-5.3-.007-6.864a15.588,15.588,0,0,0,.007,6.864m1.484,5.384A3.274,3.274,0,0,0,49.581,63c-.9,1.318-.9,2.4-.012,3.376" transform="translate(0)" fill="#fdfffa"/>
      </g>
    </g>
    <g id="Group_8237" data-name="Group 8237" transform="translate(-183.546 19605.428)">
      <g id="Group_8234" data-name="Group 8234">
        <path id="Path_2411" data-name="Path 2411" d="M639.6-20.831a2.339,2.339,0,0,1-2.483,2.494,2.432,2.432,0,0,1-2.567-2.626v-1.151a2.584,2.584,0,0,1,2.567-2.639,1.873,1.873,0,0,1,1.187.372v-.948c0-.432-.587-.672-1.139-.672-.66,0-1.008.2-1.008.456v.456h-1.367v-.456c0-.911,1.176-1.715,2.387-1.715a2.2,2.2,0,0,1,2.434,1.931Zm-1.344-1.308c0-.983-.5-1.379-1.163-1.379a1.289,1.289,0,0,0-1.188,1.4v1.151a1.229,1.229,0,0,0,1.224,1.391c.72,0,1.127-.5,1.127-1.391Z" fill="#fdfffa"/>
        <path id="Path_2412" data-name="Path 2412" d="M646.075-21.923c-.012,1.547-.336,3.263-2.039,3.647l-.132-1.308c.54,0,.816-.839.816-2.3v-2.027c0-1.319-.228-2.087-1.127-2.087-1,0-1.224.792-1.224,2.123v1.991c0,1.44.132,2.3.6,2.3l-.012,1.3c-1.787-.323-1.931-2.147-1.931-3.6v-1.967c0-1.571.432-3.406,2.531-3.406,2.123,0,2.53,1.571,2.53,3.346Z" fill="#fdfffa"/>
        <path id="Path_2413" data-name="Path 2413" d="M652.268-20.819a2.4,2.4,0,0,1-2.531,2.482,2.41,2.41,0,0,1-2.53-2.159v-.467a1.941,1.941,0,0,1,.755-1.463l.924.719a1.151,1.151,0,0,0-.324.84v.252a1.07,1.07,0,0,0,1.175,1.031,1.083,1.083,0,0,0,1.175-1.235v-.552c0-.732-.371-1.427-.911-1.427h-1.02v-1.248h.96a.706.706,0,0,0,.755-.743v-.4c0-.4-.527-.816-1.031-.816V-27.26a2.432,2.432,0,0,1,2.387,2.075v.24a1.658,1.658,0,0,1-.72,1.5,2.05,2.05,0,0,1,.936,2.075Z" fill="#fdfffa"/>
        <path id="Path_2414" data-name="Path 2414" d="M661.686-21.251c0,1.043-1.2,2.926-2.819,2.926v-1.259c.816,0,1.463-1,1.463-1.655v-.828c0-1.223-.659-1.5-1.055-1.5-.456,0-1.067.324-1.067,1.355v1.523h-1.367v-1.523c0-1.031-.6-1.355-1.032-1.355-.528,0-1.08.276-1.08,1.5v.852a1.678,1.678,0,0,0,1.476,1.631v1.247a3.066,3.066,0,0,1-2.831-2.95v-.78c0-2.542,1.151-5.193,6.309-5.193V-26c-2.111,0-3.526.5-4.293,1.332l.371-.084a1.88,1.88,0,0,1,1.787.983,1.971,1.971,0,0,1,1.727-.983c1.223,0,2.411.695,2.411,2.686Z" fill="#fdfffa"/>
        <path id="Path_2415" data-name="Path 2415" d="M669.811-23.722c0-1.307-.073-2.279-1.056-2.279-.707,0-1.055.444-1.055,1.308v3.478h-1.355v-3.478c0-.912-.348-1.308-1.068-1.308-.912,0-1.055.972-1.055,2.339v1.415c0,1.284.408,2.663,1.475,2.663v1.247c-2.255,0-2.831-2.123-2.831-3.886v-1.439c0-1.775.288-3.6,2.423-3.6a1.978,1.978,0,0,1,1.691,1.032,2.169,2.169,0,0,1,1.775-1.032c2.051,0,2.434,1.787,2.434,3.5l-.011,1.535c0,1.679-.672,3.886-2.819,3.886v-1.247c.984,0,1.452-1.355,1.452-2.687Z" fill="#fdfffa"/>
        <path id="Path_2416" data-name="Path 2416" d="M677.587-21.107a2.572,2.572,0,0,1-2.53,2.77c-1.476,0-2.519-.911-2.519-2.83V-27.26h1.343v6.093c0,1.151.492,1.583,1.176,1.583.779,0,1.174-.648,1.174-1.6V-21.5a2.17,2.17,0,0,0-.5-1.379,2.275,2.275,0,0,1-.636-1.308,2.022,2.022,0,0,1,.456-1.247l1.4.4c-.132.156-.324.372-.347.42-.132.179-.205.276-.205.431,0,.252.252.552.516.864a2.449,2.449,0,0,1,.672,1.727Z" fill="#fdfffa"/>
        <path id="Path_2417" data-name="Path 2417" d="M683.707-21.047c0,1.8-.84,2.71-2.53,2.71a2.434,2.434,0,0,1-2.531-2.626v-.372a3.519,3.519,0,0,1,.767-1.763l1.032.516A3.507,3.507,0,0,0,680-21.335v.4c0,.875.3,1.355,1.176,1.355.8,0,1.175-.408,1.175-1.5v-.612a3.107,3.107,0,0,0-1.139-2.147,3.419,3.419,0,0,1-1.272-2.47v-.948h1.3v.948a2.823,2.823,0,0,0,1.02,1.751v-.012a4.069,4.069,0,0,1,1.451,2.878Z" fill="#fdfffa"/>
        <path id="Path_2418" data-name="Path 2418" d="M692.741-20.651c0,1.559-1.39,2.314-3.286,2.314-1.787,0-3.441-.372-3.418-2.506l1.344.264c0,1.067,1.175,1,2.074,1,1.008,0,1.932-.264,1.932-1.067v-.288c0-.444-.145-1.128-.708-1.128h-.492v-1.247h.492c.576,0,.827-.6.827-1.163v-.288c0-.78-.119-1.236-1.007-1.236-.66,0-.888.6-.888,1.4v.575a2.332,2.332,0,0,1-2.434,2.627,2.32,2.32,0,0,1-2.411-2.627v-.5c0-1.822.96-2.734,2.411-2.734a2.08,2.08,0,0,1,1.751.828,1.725,1.725,0,0,1,1.571-.828,2.154,2.154,0,0,1,2.374,2.459v.264a1.932,1.932,0,0,1-.923,1.835,1.741,1.741,0,0,1,.791,1.715Zm-4.5-3.875c0-1.126-.359-1.475-1.067-1.475s-1.056.265-1.056,1.475v.5c0,1.092.336,1.356,1.056,1.356.84,0,1.067-.444,1.067-1.356Z" fill="#fdfffa"/>
        <path id="Path_2419" data-name="Path 2419" d="M699.163-21.923c-.012,1.547-.336,3.263-2.039,3.647l-.132-1.308c.54,0,.816-.839.816-2.3v-2.027c0-1.319-.228-2.087-1.127-2.087-1,0-1.224.792-1.224,2.123v1.991c0,1.44.132,2.3.6,2.3l-.012,1.3c-1.787-.323-1.931-2.147-1.931-3.6v-1.967c0-1.571.432-3.406,2.531-3.406,2.123,0,2.53,1.571,2.53,3.346Z" fill="#fdfffa"/>
        <path id="Path_2420" data-name="Path 2420" d="M705.643-20.867a2.317,2.317,0,0,1-2.519,2.53,2.394,2.394,0,0,1-2.53-2.543V-25.4a1.557,1.557,0,0,1,1.606-1.763,5.093,5.093,0,0,1,1,.144h-.012a3.8,3.8,0,0,0,.744.12,4.217,4.217,0,0,0,1.558-.516v1.188a3.032,3.032,0,0,1-1.619.539,3.633,3.633,0,0,1-.839-.12,3.24,3.24,0,0,0-.672-.095c-.347-.013-.492.227-.492.539v1.044a1.949,1.949,0,0,1,1.248-.432,2.448,2.448,0,0,1,2.531,2.53Zm-1.356-1.32c0-.755-.395-1.331-1.163-1.331-.42,0-1.187.024-1.187,1.344v1.294a1.154,1.154,0,0,0,1.175,1.3c.78,0,1.175-.48,1.175-1.367Z" fill="#fdfffa"/>
        <path id="Path_2421" data-name="Path 2421" d="M711.763-21.047c0,1.8-.84,2.71-2.531,2.71a2.434,2.434,0,0,1-2.531-2.626v-.372a3.521,3.521,0,0,1,.768-1.763l1.032.516a3.508,3.508,0,0,0-.444,1.247v.4c0,.875.3,1.355,1.175,1.355.8,0,1.175-.408,1.175-1.5v-.612a3.106,3.106,0,0,0-1.138-2.147A3.419,3.419,0,0,1,708-26.312v-.948h1.295v.948a2.823,2.823,0,0,0,1.02,1.751v-.012a4.069,4.069,0,0,1,1.451,2.878Z" fill="#fdfffa"/>
        <path id="Path_2422" data-name="Path 2422" d="M718.051-20.867a2.317,2.317,0,0,1-2.519,2.53A2.4,2.4,0,0,1,713-20.88V-25.4a1.557,1.557,0,0,1,1.606-1.763,5.093,5.093,0,0,1,1,.144h-.012a3.8,3.8,0,0,0,.744.12,4.227,4.227,0,0,0,1.559-.516v1.188a3.038,3.038,0,0,1-1.62.539,3.617,3.617,0,0,1-.838-.12,3.258,3.258,0,0,0-.672-.095c-.348-.013-.493.227-.493.539v1.044a1.95,1.95,0,0,1,1.249-.432,2.447,2.447,0,0,1,2.53,2.53Zm-1.356-1.32c0-.755-.4-1.331-1.163-1.331-.42,0-1.187.024-1.187,1.344v1.294a1.154,1.154,0,0,0,1.176,1.3c.779,0,1.174-.48,1.174-1.367Z" fill="#fdfffa"/>
        <path id="Path_2423" data-name="Path 2423" d="M724.338-21.107a2.572,2.572,0,0,1-2.53,2.77c-1.476,0-2.519-.911-2.519-2.83V-27.26h1.343v6.093c0,1.151.492,1.583,1.176,1.583.779,0,1.174-.648,1.174-1.6V-21.5a2.17,2.17,0,0,0-.5-1.379,2.274,2.274,0,0,1-.635-1.308,2.019,2.019,0,0,1,.455-1.247l1.4.4c-.132.156-.323.372-.348.42-.131.179-.2.276-.2.431,0,.252.252.552.516.864a2.449,2.449,0,0,1,.672,1.727Z" fill="#fdfffa"/>
        <path id="Path_2424" data-name="Path 2424" d="M732.461-23.722c0-1.307-.072-2.279-1.056-2.279-.707,0-1.054.444-1.054,1.308v3.478h-1.356v-3.478c0-.912-.348-1.308-1.067-1.308-.912,0-1.056.972-1.056,2.339v1.415c0,1.284.408,2.663,1.476,2.663v1.247c-2.255,0-2.831-2.123-2.831-3.886v-1.439c0-1.775.288-3.6,2.422-3.6a1.978,1.978,0,0,1,1.692,1.032,2.166,2.166,0,0,1,1.774-1.032c2.051,0,2.435,1.787,2.435,3.5l-.012,1.535c0,1.679-.672,3.886-2.818,3.886v-1.247c.983,0,1.451-1.355,1.451-2.687Z" fill="#fdfffa"/>
        <path id="Path_2425" data-name="Path 2425" d="M744.413-23.722c0-1.307-.072-2.279-1.056-2.279-.707,0-1.054.444-1.054,1.308v3.478h-1.356v-3.478c0-.912-.347-1.308-1.067-1.308-.912,0-1.056.972-1.056,2.339v1.415c0,1.284.408,2.663,1.476,2.663v1.247c-2.255,0-2.831-2.123-2.831-3.886v-1.439c0-1.775.288-3.6,2.423-3.6a1.978,1.978,0,0,1,1.691,1.032,2.167,2.167,0,0,1,1.774-1.032c2.051,0,2.435,1.787,2.435,3.5l-.012,1.535c0,1.679-.672,3.886-2.818,3.886v-1.247c.983,0,1.451-1.355,1.451-2.687Z" fill="#fdfffa"/>
        <path id="Path_2426" data-name="Path 2426" d="M755.271-21.251c0,1.043-1.2,2.926-2.818,2.926v-1.259c.816,0,1.463-1,1.463-1.655v-.828c0-1.223-.659-1.5-1.055-1.5-.456,0-1.067.324-1.067,1.355v1.523h-1.367v-1.523c0-1.031-.6-1.355-1.032-1.355-.528,0-1.08.276-1.08,1.5v.852a1.678,1.678,0,0,0,1.476,1.631v1.247a3.066,3.066,0,0,1-2.831-2.95v-.78c0-2.542,1.151-5.193,6.309-5.193V-26c-2.111,0-3.526.5-4.293,1.332l.371-.084a1.88,1.88,0,0,1,1.787.983,1.971,1.971,0,0,1,1.727-.983c1.223,0,2.41.695,2.41,2.686Z" fill="#fdfffa"/>
        <path id="Path_2427" data-name="Path 2427" d="M762.089-21.023a2.734,2.734,0,0,1-2.9,2.686,2.884,2.884,0,0,1-2.855-2.7v-.636a2.806,2.806,0,0,1,2.867-2.818c.144-.3.287-.552.432-.852a.8.8,0,0,0-.708-.66c-.527,0-.779.181-.779.444v.528H756.86v-.528a1.932,1.932,0,0,1,2.063-1.7,1.812,1.812,0,0,1,1.991,2.027l-.432.936a2.762,2.762,0,0,1,1.62,2.518Zm-1.355-.768a1.385,1.385,0,0,0-1.271-1.451h-.372c-.875,0-1.4.624-1.4,1.607v.516a1.5,1.5,0,0,0,1.536,1.547,1.4,1.4,0,0,0,1.511-1.547Z" fill="#fdfffa"/>
        <path id="Path_2428" data-name="Path 2428" d="M768.233-21.047c0,1.8-.839,2.71-2.53,2.71a2.434,2.434,0,0,1-2.531-2.626v-.372a3.527,3.527,0,0,1,.767-1.763l1.033.516a3.516,3.516,0,0,0-.445,1.247v.4c0,.875.3,1.355,1.176,1.355.8,0,1.175-.408,1.175-1.5v-.612a3.1,3.1,0,0,0-1.139-2.147,3.422,3.422,0,0,1-1.271-2.47v-.948h1.295v.948a2.826,2.826,0,0,0,1.019,1.751v-.012a4.065,4.065,0,0,1,1.451,2.878Z" fill="#fdfffa"/>
        <path id="Path_2429" data-name="Path 2429" d="M774.521-20.867A2.317,2.317,0,0,1,772-18.337a2.394,2.394,0,0,1-2.53-2.543V-25.4a1.557,1.557,0,0,1,1.606-1.763,5.1,5.1,0,0,1,1,.144h-.013a3.822,3.822,0,0,0,.745.12,4.223,4.223,0,0,0,1.558-.516v1.188a3.035,3.035,0,0,1-1.619.539,3.634,3.634,0,0,1-.839-.12,3.239,3.239,0,0,0-.672-.095c-.347-.013-.492.227-.492.539v1.044a1.947,1.947,0,0,1,1.248-.432,2.447,2.447,0,0,1,2.53,2.53Zm-1.355-1.32c0-.755-.4-1.331-1.163-1.331-.42,0-1.188.024-1.188,1.344v1.294a1.154,1.154,0,0,0,1.176,1.3c.78,0,1.175-.48,1.175-1.367Z" fill="#fdfffa"/>
        <path id="Path_2430" data-name="Path 2430" d="M780.81-21.923c-.012,1.547-.336,3.263-2.039,3.647l-.132-1.308c.54,0,.815-.839.815-2.3v-2.027c0-1.319-.227-2.087-1.127-2.087-1,0-1.223.792-1.223,2.123v1.991c0,1.44.131,2.3.6,2.3l-.012,1.3c-1.787-.323-1.93-2.147-1.93-3.6v-1.967c0-1.571.431-3.406,2.53-3.406,2.123,0,2.53,1.571,2.53,3.346Z" fill="#fdfffa"/>
        <path id="Path_2431" data-name="Path 2431" d="M786.33-25.233a1.717,1.717,0,0,1-.36.972,2.392,2.392,0,0,1,1.967,2.434v.888a2.427,2.427,0,0,1-2.639,2.6,2.428,2.428,0,0,1-2.626-2.6v-.852a2.177,2.177,0,0,1,.611-1.643,1.693,1.693,0,0,1-1.223-1.811v-.264c0-1.1.887-1.751,2.134-1.751,1.548,0,2.136.708,2.136,1.751Zm-1.3-.252c0-.348-.456-.516-.84-.516-.5,0-.839.168-.839.528v.42c0,.348.288.624.864.624.359,0,.815-.192.815-.624Zm-1.007,4.426c0,1,.564,1.475,1.271,1.475.731,0,1.271-.528,1.271-1.535v-.492c0-1.007-.54-1.463-1.271-1.463a1.19,1.19,0,0,0-1.271,1.367Z" fill="#fdfffa"/>
        <path id="Path_2432" data-name="Path 2432" d="M794.058-21.047c0,1.8-.84,2.71-2.531,2.71A2.434,2.434,0,0,1,789-20.963v-.372a3.521,3.521,0,0,1,.768-1.763l1.032.516a3.507,3.507,0,0,0-.444,1.247v.4c0,.875.3,1.355,1.175,1.355.8,0,1.175-.408,1.175-1.5v-.612a3.1,3.1,0,0,0-1.139-2.147,3.422,3.422,0,0,1-1.271-2.47v-.948h1.295v.948a2.826,2.826,0,0,0,1.019,1.751v-.012a4.066,4.066,0,0,1,1.452,2.878Z" fill="#fdfffa"/>
        <path id="Path_2433" data-name="Path 2433" d="M800.944-21.119a2.749,2.749,0,0,1-2.854,2.782,3.007,3.007,0,0,1-2.975-3.214v-2.087a6.9,6.9,0,0,1,.984-3.79l.948.852a6.494,6.494,0,0,0-.576,2.938v2.087a1.859,1.859,0,0,0,1.619,1.967,1.453,1.453,0,0,0,1.487-1.535v-.4c0-.659-.216-1.127-.743-1.127h-.924V-23.89h.924a.748.748,0,0,0,.743-.695c0-.228-.264-.42-.527-.612a2.279,2.279,0,0,1-1.1-2.063h1.236a1.266,1.266,0,0,0,.707,1.164c.515.347,1.055.707,1.055,1.487a1.329,1.329,0,0,1-.779,1.355,1.768,1.768,0,0,1,.779,1.715Z" fill="#fdfffa"/>
        <path id="Path_2434" data-name="Path 2434" d="M807.233-21.923c-.011,1.547-.336,3.263-2.039,3.647l-.132-1.308c.541,0,.816-.839.816-2.3v-2.027c0-1.319-.228-2.087-1.127-2.087-1,0-1.224.792-1.224,2.123v1.991c0,1.44.132,2.3.6,2.3l-.012,1.3c-1.787-.323-1.93-2.147-1.93-3.6v-1.967c0-1.571.431-3.406,2.53-3.406,2.123,0,2.53,1.571,2.53,3.346Z" fill="#fdfffa"/>
        <path id="Path_2435" data-name="Path 2435" d="M813.545-21.047c0,1.8-.84,2.71-2.53,2.71a2.435,2.435,0,0,1-2.532-2.626v-.372a3.521,3.521,0,0,1,.768-1.763l1.032.516a3.507,3.507,0,0,0-.444,1.247v.4c0,.875.3,1.355,1.176,1.355.8,0,1.174-.408,1.174-1.5v-.612a3.106,3.106,0,0,0-1.138-2.147,3.419,3.419,0,0,1-1.272-2.47v-.948h1.295v.948a2.823,2.823,0,0,0,1.02,1.751v-.012a4.069,4.069,0,0,1,1.451,2.878Z" fill="#fdfffa"/>
      </g>
      <g id="Group_8235" data-name="Group 8235">
        <path id="Path_2436" data-name="Path 2436" d="M639.331-11.124c0,2.983,4.993,2.566,4.993,5.306a6.172,6.172,0,0,1-.936,3.364,7.714,7.714,0,0,1,5.722,7.385l.035,3.989a7.421,7.421,0,0,1-7.317,7.178,7.157,7.157,0,0,1-7.282-7.213V4.966a7.247,7.247,0,0,1,6.519-7.42,6.708,6.708,0,0,0,.763-3.3c-.07-1.768-4.994-1.838-4.994-5.375ZM637.042,8.469c0,2.878,1.457,5.514,4.786,5.514,3.5,0,4.82-2.948,4.82-5.306V5.07c0-2.462-1.561-5.514-4.82-5.514-3.468,0-4.786,2.567-4.786,5.618Z" fill="#fdfffa"/>
        <path id="Path_2437" data-name="Path 2437" d="M671.442,9.96c0,4.334-3.434,6.138-7.283,6.138-4.23,0-7.282-2.775-7.282-6.485a7.62,7.62,0,0,1,3.364-6.658l1.525,1.526c-1.8,1.664-2.426,2.393-2.426,5.167s1.526,4.335,4.819,4.335c2.913,0,4.82-1.6,4.82-4.092V-5.194c0-2.254-1.6-3.78-4.161-3.78-2.6,0-4.4,1.457-4.4,3.815a4.444,4.444,0,0,0,.833,2.635l-1.838,1.387a6.656,6.656,0,0,1-1.318-4.022c0-3.572,2.566-5.965,6.519-5.965,3.85,0,6.832,2.081,6.832,5.93Z" fill="#fdfffa"/>
        <path id="Path_2438" data-name="Path 2438" d="M704.973,7.567c0,3.051-3.086,8.565-7.282,8.565V13.983c2.671,0,4.82-3.885,4.82-6.381V4.862c0-4.75-2.808-5.86-4.473-5.86C696.165-1,693.6.285,693.6,4.411V8.4h-2.5V4.411C691.1.285,688.571-1,686.7-1c-2.184,0-4.474,1.11-4.474,5.86V7.671c0,2.427,1.873,6.312,4.821,6.312V16.1c-4.821,0-7.317-5.618-7.317-8.635v-2.6c0-7.8,3.432-15.986,18.691-15.986v2.15C690.2-8.974,685.139-6.2,683.092-2l1.388-.416L686.7-2.9c2.149,0,4.508.069,5.652,4.126C693.7-2.836,696.165-2.9,698.038-2.9c3.5,0,6.935,2.011,6.935,7.767Z" fill="#fdfffa"/>
        <path id="Path_2439" data-name="Path 2439" d="M727.3,8.92a6.753,6.753,0,0,1-7.179,7.178c-4.785,0-7.386-3.295-7.386-7.629V4.724A7.464,7.464,0,0,1,720.126-2.9a4.976,4.976,0,0,1,4.89,3.051V-5.783c0-2.012-2.427-3.191-4.681-3.191-2.844,0-4.265,1.179-4.265,2.5v2.046h-2.532V-6.477c0-2.5,3.364-4.647,6.831-4.647,3.642,0,6.97,2.15,6.97,5.341Zm-2.463-4.266c0-3.918-2.08-5.479-4.785-5.479-3.155,0-4.854,2.913-4.854,5.549V8.469c0,3.363,1.941,5.548,4.993,5.548,3.017,0,4.646-2.011,4.646-5.548Z" fill="#fdfffa"/>
        <path id="Path_2440" data-name="Path 2440" d="M750.157,9.96c0,4.334-3.434,6.138-7.282,6.138-4.231,0-7.283-2.775-7.283-6.485a7.62,7.62,0,0,1,3.364-6.658l1.525,1.526c-1.8,1.664-2.426,2.393-2.426,5.167s1.526,4.335,4.82,4.335c2.912,0,4.819-1.6,4.819-4.092V-5.194c0-2.254-1.595-3.78-4.161-3.78-2.6,0-4.4,1.457-4.4,3.815a4.451,4.451,0,0,0,.833,2.635l-1.838,1.387a6.656,6.656,0,0,1-1.318-4.022c0-3.572,2.566-5.965,6.519-5.965,3.85,0,6.832,2.081,6.832,5.93Z" fill="#fdfffa"/>
        <path id="Path_2441" data-name="Path 2441" d="M791.214-.929c0,2.982-2.428,8.219-5.479,9.952L784.174,7.6a12.58,12.58,0,0,0,4.508-8.7v-2.22c0-3.571-1.734-5.478-3.849-5.478-3.4,0-4.092,2.219-4.092,4.993V1.707h-2.288V-3.807c0-2.705-.59-5.167-3.642-5.167-2.774,0-3.64,2.566-3.64,5.063V1.707h-2.324V-3.911c0-2.5-.173-4.889-3.988-4.889-2.774,0-3.919,2.7-3.919,6.1l.036,2.427c-.07,8.115,8.738,13.593,19.106,13.593h2.566v2.393h-2.5c-13.974,0-21.534-8.01-21.672-15.986L758.444-2.8c0-4.647,1.942-8.149,6.415-8.149,2.392,0,3.884.658,5.375,3.849.971-3.191,2.323-4.023,4.577-4.023,2.116,0,3.607.832,4.716,3.849,1.352-3.017,3.364-3.675,5.272-3.675,3.571,0,6.415,2.67,6.415,7.455Z" fill="#fdfffa"/>
        <path id="Path_2442" data-name="Path 2442" d="M813.51,5.348c-.034,4.646-1.248,9.813-5.375,10.75l-.208-2.115c1.7,0,3.121-3.122,3.121-8.531V-1.137c0-4.924-.971-7.837-4.682-7.837-4.056,0-4.958,2.983-4.958,7.941V5.452c0,5.3.971,8.531,2.532,8.531l-.035,2.115c-4.2-.8-4.959-6.243-4.959-10.646V-.964c0-4.681,1.248-10.16,7.282-10.16,6.172,0,7.317,4.682,7.317,9.987Z" fill="#fdfffa"/>
      </g>
    </g>
  </g>
</svg>
