<svg xmlns="http://www.w3.org/2000/svg" width="80.978" height="77.369" viewBox="0 0 80.978 77.369">
  <g id="noun-freelancer-6084587" transform="translate(-8.245 -10)">
    <path id="Path_36" data-name="Path 36" d="M39.35,46.876a33.707,33.707,0,0,1,4.442.043C64.85,44.608,64.241,12.37,41.7,12c-22.311.42-23.174,32.253-2.348,34.876Z" transform="translate(-3.883 0)" fill="none" stroke="#fdfffa" stroke-width="4"/>
    <path id="Path_37" data-name="Path 37" d="M58.382,97.981c0-.87-2.9-6.373-1.066-11.467,1.638-4.55,7.957-8.725,2.376-13.982C50.177,61.51,30.127,59.51,18.8,69.728c-.022.014-.036.036-.058.051-8.072,6.312-8.869,17.681-8.42,28.2,24.253,0,48.06.246,48.06.007Z" transform="translate(0 -14.061)" fill="none" stroke="#fdfffa" stroke-width="4"/>
    <path id="Path_38" data-name="Path 38" d="M103.9,79.13H68.773a2.894,2.894,0,0,0-2.893,2.893V108.2h40.9V82.023a2.894,2.894,0,0,0-2.892-2.893ZM86.34,100.481A6.825,6.825,0,1,1,93.2,93.656,6.855,6.855,0,0,1,86.34,100.481Z" transform="translate(-17.562 -20.828)" fill="#fdfffa"/>
    <path id="Path_40" data-name="Path 40" d="M90.632,91.9a4.461,4.461,0,1,0,4.492,4.461A4.489,4.489,0,0,0,90.632,91.9Z" transform="translate(-21.854 -23.533)" fill="#fdfffa"/>
  </g>
</svg>
