<svg id="noun-house-2403651" xmlns="http://www.w3.org/2000/svg" width="108" height="108" viewBox="0 0 108 108">
  <rect id="Rectangle_45" data-name="Rectangle 45" width="108" height="108" fill="none"/>
  <path id="Path_31" data-name="Path 31" d="M77.66,83.04H26.9V55.5l-5.4,5.724V85.632a2.674,2.674,0,0,0,2.7,2.7H80.36a2.674,2.674,0,0,0,2.7-2.7V61.224L77.66,55.5Z" transform="translate(1.72 4.44)" fill="#fdfffa"/>
  <path id="Path_32" data-name="Path 32" d="M91.948,53.528,55.444,15.08A3.721,3.721,0,0,0,52.96,14a3.516,3.516,0,0,0-2.484,1.08l-36.5,38.448A3.421,3.421,0,0,0,13,56.012,3.516,3.516,0,0,0,14.08,58.5a3.35,3.35,0,0,0,2.376.972,3.516,3.516,0,0,0,2.484-1.08l3.132-3.24,5.4-5.724L52.96,22.532,78.34,49.316l5.4,5.724,3.132,3.24a3.516,3.516,0,0,0,2.484,1.08,3.35,3.35,0,0,0,2.376-.972,3.516,3.516,0,0,0,1.08-2.484A2.863,2.863,0,0,0,91.948,53.528Z" transform="translate(1.04 1.12)" fill="#fdfffa"/>
  <path id="Path_33" data-name="Path 33" d="M64,54.812A7.406,7.406,0,0,0,57.407,50.6h0a12.152,12.152,0,0,0-6.48,2.268,13.124,13.124,0,0,0-6.48-2.16,6.961,6.961,0,0,0-6.48,4.212,8.1,8.1,0,0,0-.54,6.156c1.944,6.7,11.664,11.772,12.744,12.312a1.836,1.836,0,0,0,1.728,0c1.08-.54,11.016-5.832,12.852-12.528A7.884,7.884,0,0,0,64,54.812Z" transform="translate(2.965 4.048)" fill="#fdfffa"/>
</svg>
