<svg xmlns="http://www.w3.org/2000/svg" width="14.182" height="16.179" viewBox="0 0 14.182 16.179">
  <g id="Group_8662" data-name="Group 8662" transform="translate(-387.484 -230.781)">
    <path id="Path_2534" data-name="Path 2534" d="M397.34,239.544h-1.965v-5.717q-.188-.022-.386-.033t-.4-.011q-.21,0-.4.011t-.381.033v5.717h-1.965v-5.121q-2.263,1.3-2.262,5.121a6.4,6.4,0,0,0,.425,2.445,4.788,4.788,0,0,0,1.153,1.711,4.673,4.673,0,0,0,1.7,1.01,6.352,6.352,0,0,0,2.064.331h6.346v1.92H387.981v-1.92h1.92a6.887,6.887,0,0,1-1.76-2.312,7.3,7.3,0,0,1-.657-3.184,9.986,9.986,0,0,1,.292-2.472,7.593,7.593,0,0,1,.85-2.069,6.233,6.233,0,0,1,3.217-2.654v-1.567h1.965v1.137q.375-.033.784-.033t.784.033v-1.137h1.965v1.567a6.24,6.24,0,0,1,3.2,2.654,7.485,7.485,0,0,1,.844,2.069,10.175,10.175,0,0,1,.287,2.472H399.58a7.976,7.976,0,0,0-.557-3.178,4,4,0,0,0-1.683-1.931Z" fill="gray"/>
  </g>
</svg>
