<svg xmlns="http://www.w3.org/2000/svg" xmlns:xlink="http://www.w3.org/1999/xlink" width="64" height="167" viewBox="0 0 64 167">
  <defs>
    <filter id="Rectangle_12" x="0" y="0" width="64" height="167" filterUnits="userSpaceOnUse">
      <feOffset dy="3" input="SourceAlpha"/>
      <feGaussianBlur stdDeviation="3" result="blur"/>
      <feFlood flood-opacity="0.102"/>
      <feComposite operator="in" in2="blur"/>
      <feComposite in="SourceGraphic"/>
    </filter>
  </defs>
  <g id="Group_8140" data-name="Group 8140" transform="translate(9 -507)">
    <g transform="matrix(1, 0, 0, 1, -9, 507)" filter="url(#Rectangle_12)">
      <g id="Rectangle_12-2" data-name="Rectangle 12" transform="translate(9 6)" fill="#fff" stroke="#0c0" stroke-width="1">
        <rect width="46" height="149" rx="23" stroke="none"/>
        <rect x="0.5" y="0.5" width="45" height="148" rx="22.5" fill="none"/>
      </g>
    </g>
    <g id="noun-location-4775289" transform="translate(646.586 178.522)">
      <path id="Path_20" data-name="Path 20" d="M74.2,0a9.712,9.712,0,0,0-9.7,9.7c0,1.743.821,3.942,2.5,6.723,1.4,2.31,3.131,4.605,4.656,6.627.7.932,1.368,1.814,1.88,2.543a.812.812,0,0,0,1.327,0c.512-.73,1.175-1.611,1.88-2.543C78.27,21.03,80,18.735,81.4,16.425c1.682-2.781,2.5-4.98,2.5-6.723A9.712,9.712,0,0,0,74.2,0Zm0,14.186A4.484,4.484,0,1,1,78.686,9.7,4.489,4.489,0,0,1,74.2,14.186Z" transform="translate(-698 348.016)" fill="#0c0"/>
    </g>
    <rect id="Rectangle_17" data-name="Rectangle 17" width="37" height="1" transform="translate(5 564)" opacity="0.1"/>
    <rect id="Rectangle_18" data-name="Rectangle 18" width="37" height="1" transform="translate(5 612)" opacity="0.1"/>
    <g id="noun-dollar-7114049" transform="translate(3.668 568.076)">
      <path id="Path_21" data-name="Path 21" d="M8.332,19.8A11.465,11.465,0,1,1,19.8,31.261,11.465,11.465,0,0,1,8.332,19.8Zm12.612-6.879a1.147,1.147,0,1,0-2.294,0v1.147a3.439,3.439,0,0,0,0,6.879h2.294a1.146,1.146,0,0,1,0,2.293h-3.9a1.146,1.146,0,1,0,0,2.293h1.6v1.147a1.147,1.147,0,1,0,2.294,0V25.529a3.439,3.439,0,1,0,0-6.879H18.65a1.146,1.146,0,0,1,0-2.293h3.9a1.146,1.146,0,1,0,0-2.293h-1.6Z" fill="#0c0" fill-rule="evenodd"/>
    </g>
    <path id="Subtraction_1" data-name="Subtraction 1" d="M-3830.315,16.36a9.744,9.744,0,0,1-4.338-1.026.6.6,0,0,0-.268-.068.464.464,0,0,0-.1.011l-2.937.722a1.258,1.258,0,0,1-.345.048,1.42,1.42,0,0,1-1.116-.579,1.326,1.326,0,0,1-.236-1.166l.722-2.932a.527.527,0,0,0-.051-.367,9.739,9.739,0,0,1,2.723-11.992A9.127,9.127,0,0,1-3830.434-3a10.16,10.16,0,0,1,4.945,1.283,9.15,9.15,0,0,1,3.634,3.659A9.557,9.557,0,0,1-3820.734,8a9.581,9.581,0,0,1-2.736,5.526A9.7,9.7,0,0,1-3830.315,16.36Zm4.5-11.877a1.557,1.557,0,0,0-1.555,1.556,1.557,1.557,0,0,0,1.555,1.555,1.557,1.557,0,0,0,1.556-1.555A1.558,1.558,0,0,0-3825.819,4.482Zm-4.5,0a1.557,1.557,0,0,0-1.555,1.556,1.556,1.556,0,0,0,1.555,1.555,1.557,1.557,0,0,0,1.555-1.555A1.557,1.557,0,0,0-3830.32,4.482Zm-4.5,0a1.557,1.557,0,0,0-1.555,1.556,1.557,1.557,0,0,0,1.555,1.555,1.557,1.557,0,0,0,1.556-1.555A1.557,1.557,0,0,0-3834.82,4.482Z" transform="translate(3852 628.662)" fill="#0c0"/>
  </g>
</svg>
