<svg xmlns="http://www.w3.org/2000/svg" width="19.404" height="25.939" viewBox="0 0 19.404 25.939">
  <g id="noun-location-4775289" transform="translate(633.5 -348.016)">
    <path id="Path_20" data-name="Path 20" d="M74.2,0a9.712,9.712,0,0,0-9.7,9.7c0,1.743.821,3.942,2.5,6.723,1.4,2.31,3.131,4.605,4.656,6.627.7.932,1.368,1.814,1.88,2.543a.812.812,0,0,0,1.327,0c.512-.73,1.175-1.611,1.88-2.543C78.27,21.03,80,18.735,81.4,16.425c1.682-2.781,2.5-4.98,2.5-6.723A9.712,9.712,0,0,0,74.2,0Zm0,14.186A4.484,4.484,0,1,1,78.686,9.7,4.489,4.489,0,0,1,74.2,14.186Z" transform="translate(-698 348.016)" fill="#0c0"/>
  </g>
</svg>
