<svg id="Group_8202" data-name="Group 8202" xmlns="http://www.w3.org/2000/svg" width="98.983" height="90.203" viewBox="0 0 98.983 90.203">
  <g id="Group_8200" data-name="Group 8200" transform="translate(0 0)">
    <path id="Path_2263" data-name="Path 2263" d="M63.135,15.62a83.31,83.31,0,0,0,8.806,12.073c3.968,4.519,8.588,8.33,13.072,12.288C90.239,44.6,94.64,49.812,97.073,56.5a29.291,29.291,0,0,1,1.865,7.953c.374,5.326-1.538,9.819-4.917,13.778-.6.706-1.234,1.389-1.836,2.1-.4.468-1.1.773-.734,1.657.085.208-.33.655-.556.961a17.308,17.308,0,0,1-11.349,6.834c-6.15,1.087-11.982.131-17.056-3.675-5.321-3.99-9.842-8.755-12.589-14.99-.063-.143-.146-.276-.311-.583a9.281,9.281,0,0,0-.582.927A38.463,38.463,0,0,1,38.925,84.27,21.744,21.744,0,0,1,28,89.784c-7.145,1.148-13.622-.154-18.826-5.66a12.216,12.216,0,0,1-1.295-1.666c-.2-.3-.769-.613-.194-1.109a2.689,2.689,0,0,0-.416-.663C5.928,79.052,4.476,77.5,3.259,75.782c-3.745-5.29-3.974-11.07-2.141-17.1a37.38,37.38,0,0,1,10.713-16.8c3.55-3.276,7.221-6.419,10.758-9.711a68.137,68.137,0,0,0,12.6-15.912c.122-.212.267-.411.547-.84,1.27,3.335,2.465,6.476,3.66,9.615A39.124,39.124,0,0,1,44.939,6.826C46.3,4.515,47.851,2.322,49.365,0c5.815,7.5,9.755,15.526,10.2,25l3.574-9.375M88.7,80.625c.06.127.12.252.179.378.408-.17.927-.234,1.2-.53,1.268-1.352,2.523-2.727,3.685-4.173a16.411,16.411,0,0,0,3.787-13.174,32.782,32.782,0,0,0-6.2-14.608,60.184,60.184,0,0,0-9.546-9.691c-5.09-4.4-10.06-8.911-14.1-14.354-1.423-1.92-2.74-3.919-4.113-5.894a.828.828,0,0,0-.23.16,1.818,1.818,0,0,0-.286.5,65.465,65.465,0,0,0-2.305,7.828c-.944,5.509,1.045,9.835,5.886,12.709C69,41.158,71.35,42.512,73.684,43.9a57.241,57.241,0,0,1,13.029,9.86c6.557,7.02,7.812,16.774,3.167,24.917-.378.662-.787,1.3-1.183,1.954M35.594,18.44c-.3.413-.5.658-.666.925A76.055,76.055,0,0,1,20.452,36.086c-3.373,2.992-6.752,5.991-9.937,9.18a33.55,33.55,0,0,0-8.39,14.626C.8,64.443.813,68.9,3.112,73.189a32.456,32.456,0,0,0,5.8,7.379c.28.284.906.217,1.373.314a10.991,10.991,0,0,0-1.1-2.249,19.125,19.125,0,0,1-2.869-11.1A22.047,22.047,0,0,1,13.1,52.772a63.344,63.344,0,0,1,12.406-9.1c2.628-1.567,5.286-3.086,7.881-4.706a10.637,10.637,0,0,0,4.5-6.03,14.11,14.11,0,0,0,.254-6.571,31.923,31.923,0,0,0-2.55-7.923m29.411,36.6c1.258.082,2.5.137,3.735.25a28.612,28.612,0,0,1,11.967,3.356c5.175,2.988,7.515,7.579,6.982,13.515-.241,2.669-1.007,5.29-1.506,7.936a2.449,2.449,0,0,0,.149.828c.252-.144.581-.228.741-.441.46-.612.864-1.27,1.271-1.92a18.388,18.388,0,0,0,2.864-12.932,21.52,21.52,0,0,0-7.234-12.872,64.716,64.716,0,0,0-10.4-7.472c-3.322-2.015-6.613-4.081-9.933-6.1a.955.955,0,0,0-.829.007c-4.789,2.927-6.121,7.668-3.545,12.388,1.219,2.232,2.814,4.058,5.743,3.454m-31.049.025a4.488,4.488,0,0,0,3.69-.979c3.962-3.434,5.422-10.854-1.3-14.867a1.043,1.043,0,0,0-.9.014c-2.477,1.505-4.9,3.1-7.394,4.574a75.378,75.378,0,0,0-12.74,8.806c-3.807,3.471-6.574,7.523-7.5,12.767C6.8,71.132,8.633,76.021,11.9,80.552c.145.2.526.231.8.341a2.407,2.407,0,0,0,.131-.846c-.225-1-.541-1.977-.775-2.975a21.4,21.4,0,0,1-.57-9.421c1-4.755,3.968-7.858,8.21-9.855,4.5-2.118,9.325-2.575,14.266-2.736m27.405.738a10.894,10.894,0,0,1-4.611-9.338c.085-3.943,2.282-6.685,5.571-8.68a15.116,15.116,0,0,1-3.072-6.558.883.883,0,0,0-.28.467c-.909,5.807-2.983,11.3-4.454,16.953a42.829,42.829,0,0,0-1.568,8.894c-.29,6.922,2.588,12.807,6.693,18.134,2.367,3.07,5.576,5.137,8.793,7.187a8.259,8.259,0,0,0,7.921.621c.213-.084.5-.281.539-.468.412-2.235.847-4.468,1.13-6.722a2.462,2.462,0,0,0-1.194-2.381,1.854,1.854,0,0,0-2.439.191,1.764,1.764,0,0,0,.115,2.294c.293.378.681.679.982,1.051a3.327,3.327,0,0,1,.367,3.635,2.653,2.653,0,0,1-2.666,1.513,3.489,3.489,0,0,1-3.454-2.135,43.593,43.593,0,0,1-1.363-4.4c-7.34-.262-9.448-3.312-6.75-10.031-4.292-1.846-3.75-7.748-.26-10.23M39.946,30.974c-.251.415-.4.558-.432.726a12.826,12.826,0,0,1-2.475,5.785.767.767,0,0,0,.124.7,4.93,4.93,0,0,0,.845.622,10.427,10.427,0,0,1-.046,16.785,1.293,1.293,0,0,0-.221.311,1.722,1.722,0,0,0,.239.328,6.42,6.42,0,0,1,2.343,4.077,4.767,4.767,0,0,1-2.537,5.461c-.52.277-.347.551-.214.936a11.527,11.527,0,0,1,.82,2.746c.179,2.413-.49,5.63-3.655,6.264a14.45,14.45,0,0,1-3.4.315c-.843-.035-.944.246-1.092.977a15.315,15.315,0,0,1-1.189,3.918,3.323,3.323,0,0,1-3.694,1.629,2.732,2.732,0,0,1-2.4-2.062,3.2,3.2,0,0,1,1.012-3.646,2.79,2.79,0,0,0,.464-.481,1.864,1.864,0,0,0,.186-2.372,1.9,1.9,0,0,0-2.53.065,3.182,3.182,0,0,0-1.139,3.2c.281,1.873.67,3.73,1.078,5.579a1.206,1.206,0,0,0,.723.765,14.15,14.15,0,0,0,3.268.6,10.1,10.1,0,0,0,5.445-2c4.518-2.83,8.369-6.289,10.889-11.1A30.382,30.382,0,0,0,45.937,60.93a27.387,27.387,0,0,0-.812-10c-1.6-6.587-4.216-12.9-5.178-19.953M52.336,51.8c.211-.845.4-1.7.634-2.534,1.333-4.706,2.78-9.384,3.991-14.122a35.884,35.884,0,0,0,.772-14.9,40.534,40.534,0,0,0-6.91-16.236c-.373-.547-.77-1.078-1.291-1.8-.859,1.259-1.657,2.362-2.385,3.51-3.783,5.955-6.252,12.346-6.334,19.53a44.952,44.952,0,0,0,1.818,12.558c1.245,4.489,2.551,8.962,3.839,13.438a3.287,3.287,0,0,0,.3.586l.364-.051a12.029,12.029,0,0,0,.076-2.963C46.681,46.39,45.96,44,45.3,41.6A58.046,58.046,0,0,1,42.78,27.447,35.043,35.043,0,0,1,49.313,6.6c.042-.063.144-.084.222-.127a40.55,40.55,0,0,1,5.235,10.71,36.286,36.286,0,0,1,.16,19.53c-1,4.122-2.147,8.206-3.23,12.307a3.138,3.138,0,0,0,.637,2.78M81.149,81.747a14.938,14.938,0,0,1,1.7-.534,1.511,1.511,0,0,0,1.347-1.367c.186-.976.5-1.925.7-2.9.7-3.39.438-6.567-1.945-9.328-2.8-3.244-6.453-3.587-10.3-3.087-2.819.367-5.61.97-8.41,1.488a1.87,1.87,0,0,0-1.023.416,5.511,5.511,0,0,0-1.148,5.478c.557,1.988,2.028,2.572,3.815,2.77.316.034.634.055.952.065A3.073,3.073,0,0,0,69.8,73.389c.31-.481.743-.88,1.1-1.334,1.908-2.436,4.347-2.8,7.115-1.86A6.124,6.124,0,0,1,82.3,76.434a29.743,29.743,0,0,1-.885,4.224c-.064.3-.144.59-.267,1.089m-63.389-.2c-.371-1.636-.791-3.2-1.071-4.793a5.941,5.941,0,0,1,3.244-6.2c2.258-1.149,5.211-1.327,7.126.591.834.836,1.542,1.8,2.4,2.61a2.769,2.769,0,0,0,1.682.9,24.269,24.269,0,0,0,4.177-.709,1.932,1.932,0,0,0,.974-.858,5.793,5.793,0,0,0,.86-3.958,3.194,3.194,0,0,0-3.1-3.184c-.471-.069-.934-.179-1.4-.272-3.261-.65-6.491-1.433-9.872-1.288a9.732,9.732,0,0,0-8.981,8.36,18.02,18.02,0,0,0,.872,6.745c.433,1.571,1.357,2.18,3.085,2.05M86.247,71.02l.364-.093c-.132-1.071-.177-2.16-.409-3.209-.982-4.434-3.907-7.164-7.895-8.867-4.373-1.869-9-2.234-13.688-2.394a4.951,4.951,0,0,0-4.8,4.619c-.119,2.319,1.217,3.767,3.5,3.637a24.176,24.176,0,0,0,3.195-.489,41.466,41.466,0,0,1,9.113-1.245A11.039,11.039,0,0,1,85.839,70.1c.123.313.272.613.408.919m-73.665-.034a35.128,35.128,0,0,1,2.137-3.762c2.889-3.888,6.956-4.712,11.424-4.1,2.932.4,5.819,1.13,8.751,1.542,2.961.416,4.432-1.114,4.207-4.127a4.319,4.319,0,0,0-4.313-4.017c-2.158.06-4.319.156-6.464.386a22.8,22.8,0,0,0-9.8,3.132,11.956,11.956,0,0,0-6.03,9.833,7.718,7.718,0,0,0,.092,1.113M49.66,8.73A10.326,10.326,0,0,0,49,9.563c-4.066,6.714-5.911,13.978-4.6,21.777.816,4.867,2.209,9.635,3.354,14.443a3.528,3.528,0,0,0,.425.74c.426-1.238.826-2.247.331-3.409a20.382,20.382,0,0,1-.726-2.489,48.29,48.29,0,0,1-2.105-13.614,38.7,38.7,0,0,1,3.175-14.642c.19-.452.4-.894.647-1.438.263.643.466,1.146.672,1.648a36.557,36.557,0,0,1,2.673,20.284c-.613,3.634-1.616,7.2-2.492,10.79a2.812,2.812,0,0,0,.689,2.715c1.172-4.293,2.313-8.568,3.209-12.9a31.687,31.687,0,0,0-2.2-20.1c-.7-1.526-1.539-2.989-2.4-4.638m-.139,5.954a31.962,31.962,0,0,0-2.536,14.643,42.853,42.853,0,0,0,2.49,12.022c2.962-8.894,3.684-17.766.046-26.665M78.448,82.542l.313.2a4.069,4.069,0,0,0,.853-1A20.772,20.772,0,0,0,80.7,78.482a9.447,9.447,0,0,0,.322-3.293,4.5,4.5,0,0,0-3.414-3.749c-1.933-.568-3.843-.577-5.316,1.19-.492.588-1.012,1.153-1.506,1.742-1.38,1.64-.892,5.263.868,6.48a2.247,2.247,0,0,0,2.882-.264c.643-.764.418-1.816-.364-2.734a6.676,6.676,0,0,1-1.335-2.268,2.61,2.61,0,0,1,2.5-3.39,3.788,3.788,0,0,1,3.873,3.811,48.045,48.045,0,0,1-.575,5.341c-.047.4-.122.8-.184,1.2m-58.128.251.286-.259c-.052-.279-.11-.557-.158-.837-.256-1.517-.6-3.026-.747-4.555-.188-1.907.3-3.6,2.117-4.589a2.979,2.979,0,0,1,3.409.319A2.408,2.408,0,0,1,26.1,75.8a8.668,8.668,0,0,1-1.5,2.376,1.835,1.835,0,0,0-.349,2.2,1.612,1.612,0,0,0,1.866.836,2.7,2.7,0,0,0,2.141-1.565c1.211-2.466,1.012-4.119-.717-6.229-1.24-1.513-2.608-2.5-4.733-2.279-2.772.288-5.6,2.9-4.853,6.013.39,1.619.906,3.212,1.45,4.787.122.349.6.573.913.854M52.194,63.361a1.913,1.913,0,0,0-.575,2.052c2.15,6.622,5.592,12.368,11.128,16.7a3.624,3.624,0,0,0,2.8.488C58.445,78.06,54.431,71.389,52.194,63.361M33.46,82.626a4.458,4.458,0,0,0,3.6-1.28A33.491,33.491,0,0,0,47.337,65.237a5.273,5.273,0,0,0-.114-1.818l-.394-.068c-2.213,8.02-6.149,14.811-13.37,19.275m27.45.008A90.084,90.084,0,0,1,55.1,75.528a90.168,90.168,0,0,1-4.342-8.045,1.451,1.451,0,0,0-.394,1.627,33.717,33.717,0,0,0,9.595,13.226,2.681,2.681,0,0,0,.952.3m-22.936-.239c.068.1.137.195.205.293a4.366,4.366,0,0,0,.833-.433,34.275,34.275,0,0,0,9.469-12.881,1.987,1.987,0,0,0-.341-2.21A34.146,34.146,0,0,1,37.974,82.395M49.622,52.572c.382-1.8,1-3.5-.071-5.261a4.95,4.95,0,0,0,.071,5.261m1.331,1.667a13.144,13.144,0,0,0-.1,6.766,16.449,16.449,0,0,0,.1-6.766m-2.868,6.749c.56-1,.528-5.3-.007-6.864a15.588,15.588,0,0,0,.007,6.864m1.484,5.384A3.274,3.274,0,0,0,49.581,63c-.9,1.318-.9,2.4-.012,3.376" transform="translate(0)" fill="#0c0"/>
  </g>
</svg>
