<svg id="Group_8331" data-name="Group 8331" xmlns="http://www.w3.org/2000/svg" xmlns:xlink="http://www.w3.org/1999/xlink" width="94.891" height="79.4" viewBox="0 0 94.891 79.4">
  <defs>
    <clipPath id="clip-path">
      <rect id="Rectangle_701" data-name="Rectangle 701" width="94.891" height="79.4" transform="translate(0 0)" fill="#fdfffa"/>
    </clipPath>
  </defs>
  <g id="Group_8331-2" data-name="Group 8331" clip-path="url(#clip-path)">
    <path id="Path_2502" data-name="Path 2502" d="M94.214,13.8l-4.9-12a2.937,2.937,0,0,0-2.7-1.8h-51.8a2.837,2.837,0,0,0-2.7,1.8l-4.9,12a8.612,8.612,0,0,0-.1,6.5,8.353,8.353,0,0,0,4.7,4.7V38.7l3.8,1.2a5.978,5.978,0,0,1,1.6.8V25.4a8.039,8.039,0,0,0,4-2.5,8.51,8.51,0,0,0,6.3,2.9h.5a8.469,8.469,0,0,0,6.2-2.7,8.775,8.775,0,0,0,6.2,2.6h.6a8.637,8.637,0,0,0,6.2-2.7,8.469,8.469,0,0,0,6.2,2.7h.5a8.167,8.167,0,0,0,6.3-2.9,8.039,8.039,0,0,0,4,2.5V73.8h-47V52.2a6.959,6.959,0,0,1-3.7,1.1,11.019,11.019,0,0,1-1.8-.2V76.7a2.689,2.689,0,0,0,2.7,2.7h52.4a2.689,2.689,0,0,0,2.7-2.7V25.1a8.353,8.353,0,0,0,4.7-4.7,8.4,8.4,0,0,0,0-6.6" fill="#fdfffa"/>
    <path id="Path_2503" data-name="Path 2503" d="M36.314,47.4a2.916,2.916,0,0,0-1.9-3.7l-5.2-1.7-4.2-5.2a7.769,7.769,0,0,0-6.1-2.9h-5.6c-6.7,0-11.7,11.4-13.1,14.9a2.909,2.909,0,0,0,1.6,3.8,2.958,2.958,0,0,0,1,.2,2.937,2.937,0,0,0,2.7-1.8,43.823,43.823,0,0,1,4.3-8.1l-.4,11.3-4.6,21.3a3.134,3.134,0,0,0,2.5,3.8c.2,0,.5.1.7.1a3.112,3.112,0,0,0,3.1-2.5l4.5-21h1.3V76.2a3.2,3.2,0,1,0,6.4,0V54.5l-.4-10.9,2.3,2.8a2.629,2.629,0,0,0,1.4.9l6,1.9a2.862,2.862,0,0,0,3.7-1.8" fill="#fdfffa"/>
    <path id="Path_2504" data-name="Path 2504" d="M16.414,32.2a6.5,6.5,0,1,0-6.5-6.5,6.487,6.487,0,0,0,6.5,6.5" fill="#fdfffa"/>
    <path id="Path_2505" data-name="Path 2505" d="M62.614,31.1h-3.9a.684.684,0,0,0-.7.7v3.4a8.58,8.58,0,0,0-7.1,9.4,8.909,8.909,0,0,0,9,7.8h2a3.378,3.378,0,0,1,3.3,3.9,3.551,3.551,0,0,1-3.5,2.8h-2.2a3.335,3.335,0,0,1-3.3-2.8.752.752,0,0,0-.7-.5h-3.9a.666.666,0,0,0-.7.8,8.5,8.5,0,0,0,7.2,7.7v3.4a.684.684,0,0,0,.7.7h3.9a.684.684,0,0,0,.7-.7V64.2a8.81,8.81,0,0,0,7.2-7.6,8.647,8.647,0,0,0-8.6-9.5h-2.4a3.378,3.378,0,0,1-3.3-3.9,3.551,3.551,0,0,1,3.5-2.8h2.2a3.415,3.415,0,0,1,3.3,2.8.752.752,0,0,0,.7.5h3.9a.666.666,0,0,0,.7-.8,8.5,8.5,0,0,0-7.2-7.7V31.8a.849.849,0,0,0-.8-.7" fill="#fdfffa"/>
  </g>
</svg>
