<svg xmlns="http://www.w3.org/2000/svg" width="82.833" height="74.572" viewBox="0 0 82.833 74.572">
  <g id="noun-money-transfers-403285" transform="translate(-19.441 -22.488)">
    <path id="Path_2512" data-name="Path 2512" d="M67.8,34.29H84.431v-6H67.8v-5.8l-12.431,8.8L67.8,40.09Zm34.472,9.779L89.844,35.274v5.793H73.224v6.009h16.62v5.791Zm-54.88-2.914A27.953,27.953,0,1,0,75.347,69.107,27.985,27.985,0,0,0,47.394,41.154Zm8.389,41.989A10.1,10.1,0,0,1,49.374,85.9v4.333H45.845V85.92a10.2,10.2,0,0,1-6.768-3.155A10.253,10.253,0,0,1,36.712,75.7H42.1a6.167,6.167,0,0,0,1.414,4.322,5.157,5.157,0,0,0,3.987,1.534,5.533,5.533,0,0,0,3.859-1.214,4.229,4.229,0,0,0,1.327-3.247,4.31,4.31,0,0,0-1.2-3.12,10.579,10.579,0,0,0-4-2.22,31.46,31.46,0,0,1-4.355-1.835c-3.461-1.85-5.177-4.592-5.177-8.217a8.489,8.489,0,0,1,2.243-6.07A9.571,9.571,0,0,1,46.29,52.81V47.967h3.556v4.886a8.776,8.776,0,0,1,5.969,3.278,11.23,11.23,0,0,1,2.118,7.079H52.555a6.97,6.97,0,0,0-1.266-4.41,4.081,4.081,0,0,0-3.411-1.61,4.611,4.611,0,0,0-3.334,1.157,4.388,4.388,0,0,0-1.2,3.311,4.138,4.138,0,0,0,1.189,3.1,11.608,11.608,0,0,0,4.032,2.212A33.789,33.789,0,0,1,53.031,68.9a11.582,11.582,0,0,1,2.739,2.034,8.076,8.076,0,0,1,1.713,2.627,9.256,9.256,0,0,1,.595,3.482A8.268,8.268,0,0,1,55.783,83.143Z" fill="#fdfffa"/>
  </g>
</svg>
