<svg xmlns="http://www.w3.org/2000/svg" xmlns:xlink="http://www.w3.org/1999/xlink" width="22" height="22" viewBox="0 0 22 22">
  <defs>
    <clipPath id="clip-path">
      <rect width="22" height="22" fill="none"/>
    </clipPath>
  </defs>
  <g id="call_24dp_5F6368" clip-path="url(#clip-path)">
    <g id="call_24dp_5F6368-2" data-name="call_24dp_5F6368">
      <path id="Path_23" data-name="Path 23" d="M0,0H22V22H0Z" fill="none"/>
      <path id="Path_24" data-name="Path 24" d="M18.12,14a10.172,10.172,0,0,1-3.138-.5.869.869,0,0,0-.9.213l-1.4,1.751A13.5,13.5,0,0,1,6.564,9.4L8.3,7.924a.907.907,0,0,0,.213-.907,9.913,9.913,0,0,1-.5-3.138A.888.888,0,0,0,7.133,3H4.058C3.578,3,3,3.213,3,3.88A15.246,15.246,0,0,0,18.12,19,.933.933,0,0,0,19,17.951V14.884a.888.888,0,0,0-.88-.88Z" fill="#1b6800"/>
    </g>
  </g>
</svg>
