<svg xmlns="http://www.w3.org/2000/svg" width="23.46" height="23.495" viewBox="0 0 23.46 23.495">
  <g id="noun-upload-6596237" transform="translate(-21.77 -21.725)">
    <g id="Group_8226" data-name="Group 8226" transform="translate(21.77 21.725)">
      <path id="Path_2361" data-name="Path 2361" d="M39.069,38.564a.833.833,0,0,0,.831-.831V24.561l5.464,5.464a.83.83,0,0,0,1.172-1.176l-6.877-6.881a.833.833,0,0,0-1.176,0L31.6,28.853a.831.831,0,1,0,1.176,1.176l5.464-5.464V37.737A.83.83,0,0,0,39.069,38.564Z" transform="translate(-27.372 -21.725)" fill="#154546"/>
      <path id="Path_2362" data-name="Path 2362" d="M44.4,60.82a.833.833,0,0,0-.831.831v3.141a1.619,1.619,0,0,1-1.62,1.616H25.053a1.622,1.622,0,0,1-1.62-1.616V61.651a.831.831,0,0,0-1.662,0v3.141a3.283,3.283,0,0,0,3.283,3.278H41.947a3.286,3.286,0,0,0,3.283-3.278V61.651A.833.833,0,0,0,44.4,60.82Z" transform="translate(-21.77 -44.576)" fill="#154546"/>
    </g>
  </g>
</svg>
