<svg xmlns="http://www.w3.org/2000/svg" width="18" height="18" viewBox="0 0 18 18">
  <g id="Group_8187" data-name="Group 8187" transform="translate(-1676 -11)">
    <g id="Group_8133" data-name="Group 8133" transform="translate(1680.849 17)">
      <g id="youtube-svgrepo-com" transform="translate(0 0)">
        <path id="Path_30" data-name="Path 30" d="M6.263,67.393H1.642A1.642,1.642,0,0,0,0,69.035v2.31a1.642,1.642,0,0,0,1.642,1.642H6.263A1.642,1.642,0,0,0,7.9,71.345v-2.31A1.642,1.642,0,0,0,6.263,67.393Zm-1,2.929L3.1,71.353a.087.087,0,0,1-.124-.078V69.148a.087.087,0,0,1,.126-.077l2.161,1.1A.087.087,0,0,1,5.26,70.322Z" transform="translate(0 -67.393)" fill="gray"/>
      </g>
    </g>
    <g id="Ellipse_903" data-name="Ellipse 903" transform="translate(1676 11)" fill="none" stroke="#d0d0d0" stroke-width="0.5">
      <circle cx="9" cy="9" r="9" stroke="none"/>
      <circle cx="9" cy="9" r="8.75" fill="none"/>
    </g>
  </g>
</svg>
